<svg width="331" height="517" viewBox="0 0 331 517" fill="none" xmlns="http://www.w3.org/2000/svg">
<path d="M287 81H48C36.9543 81 28 89.9543 28 101V483C28 494.046 36.9543 503 48 503H287C298.046 503 307 494.046 307 483V101C307 89.9543 298.046 81 287 81Z" fill="#2AAC7A" fill-opacity="0.2"/>
<path d="M295 71H40C28.9543 71 20 79.9543 20 91V473C20 484.046 28.9543 493 40 493H295C306.046 493 315 484.046 315 473V91C315 79.9543 306.046 71 295 71Z" fill="#016564" fill-opacity="0.2"/>
<path d="M303 27H32C20.9543 27 12 35.9543 12 47V463C12 474.046 20.9543 483 32 483H303C314.046 483 323 474.046 323 463V47C323 35.9543 314.046 27 303 27Z" fill="#016564" fill-opacity="0.45"/>
<path d="M311 8H24C12.9543 8 4 16.9543 4 28V453C4 464.046 12.9543 473 24 473H311C322.046 473 331 464.046 331 453V28C331 16.9543 322.046 8 311 8Z" fill="#016564"/>
<path d="M110.656 156.864H114.424V163.44H121.36V156.864H125.128V174H121.36V166.608H114.424V174H110.656V156.864ZM127.941 165.408C127.989 164.608 128.189 163.944 128.541 163.416C128.893 162.888 129.341 162.464 129.885 162.144C130.429 161.824 131.037 161.6 131.709 161.472C132.397 161.328 133.085 161.256 133.773 161.256C134.397 161.256 135.029 161.304 135.669 161.4C136.309 161.48 136.893 161.648 137.421 161.904C137.949 162.16 138.381 162.52 138.717 162.984C139.053 163.432 139.221 164.032 139.221 164.784V171.24C139.221 171.8 139.253 172.336 139.317 172.848C139.381 173.36 139.493 173.744 139.653 174H136.197C136.133 173.808 136.077 173.616 136.029 173.424C135.997 173.216 135.973 173.008 135.957 172.8C135.413 173.36 134.773 173.752 134.037 173.976C133.301 174.2 132.549 174.312 131.781 174.312C131.189 174.312 130.637 174.24 130.125 174.096C129.613 173.952 129.165 173.728 128.781 173.424C128.397 173.12 128.093 172.736 127.869 172.272C127.661 171.808 127.557 171.256 127.557 170.616C127.557 169.912 127.677 169.336 127.917 168.888C128.173 168.424 128.493 168.056 128.877 167.784C129.277 167.512 129.725 167.312 130.221 167.184C130.733 167.04 131.245 166.928 131.757 166.848C132.269 166.768 132.773 166.704 133.269 166.656C133.765 166.608 134.205 166.536 134.589 166.44C134.973 166.344 135.277 166.208 135.501 166.032C135.725 165.84 135.829 165.568 135.813 165.216C135.813 164.848 135.749 164.56 135.621 164.352C135.509 164.128 135.349 163.96 135.141 163.848C134.949 163.72 134.717 163.64 134.445 163.608C134.189 163.56 133.909 163.536 133.605 163.536C132.933 163.536 132.405 163.68 132.021 163.968C131.637 164.256 131.413 164.736 131.349 165.408H127.941ZM135.813 167.928C135.669 168.056 135.485 168.16 135.261 168.24C135.053 168.304 134.821 168.36 134.565 168.408C134.325 168.456 134.069 168.496 133.797 168.528C133.525 168.56 133.253 168.6 132.981 168.648C132.725 168.696 132.469 168.76 132.213 168.84C131.973 168.92 131.757 169.032 131.565 169.176C131.389 169.304 131.245 169.472 131.133 169.68C131.021 169.888 130.965 170.152 130.965 170.472C130.965 170.776 131.021 171.032 131.133 171.24C131.245 171.448 131.397 171.616 131.589 171.744C131.781 171.856 132.005 171.936 132.261 171.984C132.517 172.032 132.781 172.056 133.053 172.056C133.725 172.056 134.245 171.944 134.613 171.72C134.981 171.496 135.253 171.232 135.429 170.928C135.605 170.608 135.709 170.288 135.741 169.968C135.789 169.648 135.813 169.392 135.813 169.2V167.928ZM141.866 161.592H145.106V163.32H145.178C145.61 162.6 146.17 162.08 146.858 161.76C147.546 161.424 148.25 161.256 148.97 161.256C149.882 161.256 150.626 161.384 151.202 161.64C151.794 161.88 152.258 162.224 152.594 162.672C152.93 163.104 153.162 163.64 153.29 164.28C153.434 164.904 153.506 165.6 153.506 166.368V174H150.098V166.992C150.098 165.968 149.938 165.208 149.618 164.712C149.298 164.2 148.73 163.944 147.914 163.944C146.986 163.944 146.314 164.224 145.898 164.784C145.482 165.328 145.274 166.232 145.274 167.496V174H141.866V161.592ZM161.877 171.072C162.357 171.072 162.781 170.976 163.149 170.784C163.517 170.592 163.821 170.336 164.061 170.016C164.301 169.696 164.477 169.336 164.589 168.936C164.717 168.52 164.781 168.088 164.781 167.64C164.781 167.128 164.733 166.648 164.637 166.2C164.541 165.736 164.381 165.328 164.157 164.976C163.933 164.624 163.637 164.344 163.269 164.136C162.901 163.928 162.437 163.824 161.877 163.824C161.397 163.824 160.981 163.92 160.629 164.112C160.293 164.304 160.005 164.568 159.765 164.904C159.541 165.224 159.373 165.6 159.261 166.032C159.165 166.448 159.117 166.888 159.117 167.352C159.117 167.8 159.157 168.248 159.237 168.696C159.333 169.128 159.485 169.52 159.693 169.872C159.917 170.224 160.205 170.512 160.557 170.736C160.909 170.96 161.349 171.072 161.877 171.072ZM168.021 173.208C168.021 173.704 167.949 174.272 167.805 174.912C167.677 175.552 167.389 176.144 166.941 176.688C166.493 177.248 165.845 177.72 164.997 178.104C164.149 178.488 163.013 178.68 161.589 178.68C160.981 178.68 160.357 178.6 159.717 178.44C159.093 178.296 158.517 178.064 157.989 177.744C157.477 177.424 157.045 177.008 156.693 176.496C156.357 176 156.165 175.4 156.117 174.696H159.501C159.661 175.336 159.973 175.776 160.437 176.016C160.901 176.272 161.437 176.4 162.045 176.4C163.005 176.4 163.701 176.112 164.133 175.536C164.581 174.96 164.797 174.232 164.781 173.352V171.72H164.733C164.365 172.376 163.837 172.864 163.149 173.184C162.477 173.488 161.765 173.64 161.013 173.64C160.085 173.64 159.285 173.48 158.613 173.16C157.941 172.824 157.389 172.376 156.957 171.816C156.525 171.24 156.205 170.576 155.997 169.824C155.805 169.056 155.709 168.248 155.709 167.4C155.709 166.6 155.821 165.832 156.045 165.096C156.285 164.344 156.629 163.688 157.077 163.128C157.525 162.552 158.077 162.096 158.733 161.76C159.405 161.424 160.173 161.256 161.037 161.256C161.853 161.256 162.565 161.408 163.173 161.712C163.797 162.016 164.317 162.528 164.733 163.248H164.781V161.592H168.021V173.208ZM180.468 167.808C180.468 168.304 180.516 168.792 180.612 169.272C180.708 169.736 180.868 170.16 181.092 170.544C181.332 170.912 181.644 171.208 182.028 171.432C182.412 171.656 182.892 171.768 183.468 171.768C184.044 171.768 184.524 171.656 184.908 171.432C185.308 171.208 185.62 170.912 185.844 170.544C186.084 170.16 186.252 169.736 186.348 169.272C186.444 168.792 186.492 168.304 186.492 167.808C186.492 167.312 186.444 166.824 186.348 166.344C186.252 165.864 186.084 165.44 185.844 165.072C185.62 164.704 185.308 164.408 184.908 164.184C184.524 163.944 184.044 163.824 183.468 163.824C182.892 163.824 182.412 163.944 182.028 164.184C181.644 164.408 181.332 164.704 181.092 165.072C180.868 165.44 180.708 165.864 180.612 166.344C180.516 166.824 180.468 167.312 180.468 167.808ZM177.06 167.808C177.06 166.816 177.212 165.92 177.516 165.12C177.82 164.304 178.252 163.616 178.812 163.056C179.372 162.48 180.044 162.04 180.828 161.736C181.612 161.416 182.492 161.256 183.468 161.256C184.444 161.256 185.324 161.416 186.108 161.736C186.908 162.04 187.588 162.48 188.148 163.056C188.708 163.616 189.14 164.304 189.444 165.12C189.748 165.92 189.9 166.816 189.9 167.808C189.9 168.8 189.748 169.696 189.444 170.496C189.14 171.296 188.708 171.984 188.148 172.56C187.588 173.12 186.908 173.552 186.108 173.856C185.324 174.16 184.444 174.312 183.468 174.312C182.492 174.312 181.612 174.16 180.828 173.856C180.044 173.552 179.372 173.12 178.812 172.56C178.252 171.984 177.82 171.296 177.516 170.496C177.212 169.696 177.06 168.8 177.06 167.808ZM192.116 161.592H195.356V163.32H195.428C195.86 162.6 196.42 162.08 197.108 161.76C197.796 161.424 198.5 161.256 199.22 161.256C200.132 161.256 200.876 161.384 201.452 161.64C202.044 161.88 202.508 162.224 202.844 162.672C203.18 163.104 203.412 163.64 203.54 164.28C203.684 164.904 203.756 165.6 203.756 166.368V174H200.348V166.992C200.348 165.968 200.188 165.208 199.868 164.712C199.548 164.2 198.98 163.944 198.164 163.944C197.236 163.944 196.564 164.224 196.148 164.784C195.732 165.328 195.524 166.232 195.524 167.496V174H192.116V161.592ZM206.487 170.304H210.255V174H206.487V170.304ZM213.167 170.304H216.935V174H213.167V170.304ZM219.846 170.304H223.614V174H219.846V170.304Z" fill="white"/>
<path d="M54.4116 196.373H56.6575L58.9388 206.029H58.9741L61.5207 196.373H63.7842L66.26 206.029H66.2954L68.6474 196.373H70.8933L67.4095 209H65.1636L62.6348 199.344H62.5994L60.0175 209H57.7362L54.4116 196.373ZM78.033 203.624C78.01 203.306 77.939 202.999 77.821 202.704C77.715 202.41 77.562 202.156 77.361 201.944C77.173 201.72 76.937 201.543 76.654 201.413C76.383 201.272 76.076 201.201 75.734 201.201C75.381 201.201 75.057 201.266 74.762 201.396C74.479 201.514 74.231 201.685 74.019 201.909C73.819 202.121 73.654 202.374 73.524 202.669C73.406 202.964 73.341 203.282 73.329 203.624H78.033ZM73.329 204.95C73.329 205.304 73.377 205.646 73.471 205.976C73.577 206.306 73.73 206.595 73.931 206.843C74.131 207.09 74.385 207.291 74.691 207.444C74.998 207.585 75.363 207.656 75.788 207.656C76.377 207.656 76.849 207.532 77.202 207.285C77.568 207.025 77.839 206.642 78.016 206.135H79.926C79.82 206.63 79.637 207.072 79.377 207.461C79.118 207.851 78.806 208.181 78.44 208.452C78.075 208.711 77.662 208.906 77.202 209.035C76.754 209.177 76.283 209.248 75.788 209.248C75.068 209.248 74.432 209.13 73.878 208.894C73.324 208.658 72.852 208.328 72.463 207.904C72.086 207.479 71.797 206.972 71.596 206.383C71.408 205.793 71.313 205.145 71.313 204.437C71.313 203.789 71.414 203.176 71.614 202.598C71.826 202.009 72.121 201.496 72.498 201.06C72.887 200.612 73.353 200.258 73.895 199.999C74.438 199.739 75.051 199.61 75.734 199.61C76.454 199.61 77.096 199.763 77.662 200.069C78.24 200.364 78.717 200.759 79.094 201.254C79.472 201.749 79.743 202.321 79.908 202.97C80.085 203.606 80.132 204.267 80.049 204.95H73.329ZM94.161 206.966C94.161 207.214 94.191 207.391 94.25 207.497C94.32 207.603 94.45 207.656 94.639 207.656C94.698 207.656 94.768 207.656 94.851 207.656C94.933 207.656 95.028 207.644 95.134 207.621V209.018C95.063 209.041 94.969 209.065 94.851 209.088C94.745 209.124 94.633 209.153 94.515 209.177C94.397 209.2 94.279 209.218 94.161 209.23C94.043 209.242 93.943 209.248 93.861 209.248C93.448 209.248 93.106 209.165 92.835 209C92.564 208.835 92.387 208.546 92.304 208.133C91.903 208.523 91.408 208.805 90.819 208.982C90.241 209.159 89.681 209.248 89.139 209.248C88.726 209.248 88.331 209.189 87.954 209.071C87.577 208.965 87.241 208.805 86.946 208.593C86.663 208.369 86.433 208.092 86.256 207.762C86.091 207.42 86.009 207.025 86.009 206.577C86.009 206.011 86.109 205.552 86.309 205.198C86.522 204.844 86.793 204.567 87.123 204.367C87.465 204.166 87.842 204.025 88.255 203.942C88.679 203.848 89.103 203.777 89.528 203.73C89.893 203.659 90.241 203.612 90.571 203.589C90.901 203.553 91.19 203.5 91.438 203.429C91.697 203.359 91.898 203.253 92.039 203.111C92.192 202.958 92.269 202.734 92.269 202.439C92.269 202.18 92.204 201.968 92.074 201.803C91.957 201.637 91.803 201.514 91.615 201.431C91.438 201.337 91.237 201.278 91.013 201.254C90.789 201.219 90.577 201.201 90.377 201.201C89.811 201.201 89.345 201.319 88.98 201.555C88.614 201.791 88.408 202.156 88.361 202.651H86.345C86.38 202.062 86.522 201.573 86.769 201.184C87.017 200.795 87.329 200.482 87.706 200.246C88.095 200.011 88.532 199.845 89.015 199.751C89.498 199.657 89.994 199.61 90.501 199.61C90.949 199.61 91.391 199.657 91.827 199.751C92.263 199.845 92.652 199.999 92.994 200.211C93.348 200.423 93.631 200.7 93.843 201.042C94.055 201.372 94.161 201.779 94.161 202.262V206.966ZM92.145 204.42C91.839 204.62 91.461 204.744 91.013 204.791C90.565 204.827 90.117 204.885 89.669 204.968C89.457 205.003 89.251 205.056 89.05 205.127C88.85 205.186 88.673 205.275 88.52 205.392C88.367 205.499 88.243 205.646 88.149 205.835C88.066 206.011 88.025 206.229 88.025 206.489C88.025 206.713 88.09 206.901 88.219 207.055C88.349 207.208 88.502 207.332 88.679 207.426C88.868 207.509 89.068 207.568 89.28 207.603C89.504 207.638 89.705 207.656 89.882 207.656C90.106 207.656 90.347 207.627 90.607 207.568C90.866 207.509 91.108 207.408 91.332 207.267C91.567 207.125 91.762 206.949 91.915 206.736C92.069 206.512 92.145 206.241 92.145 205.923V204.42ZM96.33 199.857H98.223V201.626H98.258C98.317 201.378 98.429 201.136 98.594 200.901C98.771 200.665 98.977 200.453 99.213 200.264C99.46 200.064 99.732 199.904 100.026 199.787C100.321 199.669 100.622 199.61 100.928 199.61C101.164 199.61 101.323 199.616 101.406 199.627C101.5 199.639 101.594 199.651 101.689 199.663V201.608C101.547 201.584 101.4 201.567 101.247 201.555C101.105 201.531 100.964 201.52 100.822 201.52C100.48 201.52 100.156 201.59 99.85 201.732C99.555 201.861 99.295 202.062 99.071 202.333C98.847 202.592 98.671 202.917 98.541 203.306C98.411 203.695 98.346 204.143 98.346 204.65V209H96.33V199.857ZM108.515 203.624C108.491 203.306 108.42 202.999 108.302 202.704C108.196 202.41 108.043 202.156 107.843 201.944C107.654 201.72 107.418 201.543 107.135 201.413C106.864 201.272 106.557 201.201 106.216 201.201C105.862 201.201 105.538 201.266 105.243 201.396C104.96 201.514 104.712 201.685 104.5 201.909C104.3 202.121 104.135 202.374 104.005 202.669C103.887 202.964 103.822 203.282 103.811 203.624H108.515ZM103.811 204.95C103.811 205.304 103.858 205.646 103.952 205.976C104.058 206.306 104.211 206.595 104.412 206.843C104.612 207.09 104.866 207.291 105.172 207.444C105.479 207.585 105.844 207.656 106.269 207.656C106.858 207.656 107.33 207.532 107.683 207.285C108.049 207.025 108.32 206.642 108.497 206.135H110.407C110.301 206.63 110.118 207.072 109.859 207.461C109.599 207.851 109.287 208.181 108.921 208.452C108.556 208.711 108.143 208.906 107.683 209.035C107.235 209.177 106.764 209.248 106.269 209.248C105.549 209.248 104.913 209.13 104.359 208.894C103.805 208.658 103.333 208.328 102.944 207.904C102.567 207.479 102.278 206.972 102.077 206.383C101.889 205.793 101.795 205.145 101.795 204.437C101.795 203.789 101.895 203.176 102.095 202.598C102.307 202.009 102.602 201.496 102.979 201.06C103.368 200.612 103.834 200.258 104.376 199.999C104.919 199.739 105.532 199.61 106.216 199.61C106.935 199.61 107.577 199.763 108.143 200.069C108.721 200.364 109.198 200.759 109.576 201.254C109.953 201.749 110.224 202.321 110.389 202.97C110.566 203.606 110.613 204.267 110.531 204.95H103.811ZM122.609 196.373H124.625V198.283H122.609V196.373ZM116.083 199.857H117.586V199.097C117.586 198.519 117.657 198.053 117.798 197.7C117.94 197.334 118.129 197.057 118.364 196.869C118.6 196.668 118.865 196.539 119.16 196.48C119.467 196.409 119.785 196.373 120.115 196.373C120.764 196.373 121.235 196.415 121.53 196.497V198.071C121.4 198.036 121.259 198.012 121.105 198C120.964 197.977 120.793 197.965 120.593 197.965C120.321 197.965 120.086 198.03 119.885 198.16C119.697 198.289 119.602 198.543 119.602 198.92V199.857H121.318V201.36H119.602V209H117.586V201.36H116.083V199.857ZM122.609 199.857H124.625V209H122.609V199.857ZM126.811 199.857H128.721V201.201L128.757 201.237C129.063 200.73 129.464 200.335 129.959 200.052C130.454 199.757 131.003 199.61 131.604 199.61C132.606 199.61 133.396 199.869 133.974 200.388C134.551 200.907 134.84 201.685 134.84 202.722V209H132.824V203.253C132.801 202.533 132.647 202.015 132.364 201.696C132.081 201.366 131.639 201.201 131.038 201.201C130.696 201.201 130.39 201.266 130.118 201.396C129.847 201.514 129.617 201.685 129.429 201.909C129.24 202.121 129.093 202.374 128.987 202.669C128.881 202.964 128.827 203.276 128.827 203.606V209H126.811V199.857ZM145.578 209H143.668V207.762H143.633C143.362 208.293 142.967 208.676 142.448 208.912C141.929 209.136 141.381 209.248 140.804 209.248C140.084 209.248 139.454 209.124 138.911 208.876C138.381 208.617 137.939 208.269 137.585 207.833C137.231 207.397 136.966 206.884 136.789 206.294C136.612 205.693 136.524 205.051 136.524 204.367C136.524 203.541 136.636 202.828 136.86 202.227C137.084 201.626 137.379 201.131 137.744 200.741C138.121 200.352 138.546 200.069 139.017 199.893C139.501 199.704 139.99 199.61 140.485 199.61C140.768 199.61 141.057 199.639 141.352 199.698C141.646 199.745 141.929 199.828 142.201 199.946C142.472 200.064 142.719 200.217 142.943 200.405C143.179 200.582 143.374 200.795 143.527 201.042H143.562V196.373H145.578V209ZM138.54 204.526C138.54 204.915 138.587 205.298 138.681 205.675C138.788 206.053 138.941 206.389 139.141 206.683C139.353 206.978 139.619 207.214 139.937 207.391C140.255 207.568 140.633 207.656 141.069 207.656C141.517 207.656 141.9 207.562 142.218 207.373C142.548 207.184 142.814 206.937 143.014 206.63C143.226 206.324 143.38 205.982 143.474 205.605C143.58 205.216 143.633 204.821 143.633 204.42C143.633 203.406 143.403 202.616 142.943 202.05C142.495 201.484 141.882 201.201 141.104 201.201C140.633 201.201 140.232 201.301 139.902 201.502C139.583 201.691 139.318 201.944 139.106 202.262C138.905 202.569 138.758 202.923 138.664 203.323C138.581 203.712 138.54 204.113 138.54 204.526ZM147.83 196.373H149.846V198.283H147.83V196.373ZM147.83 199.857H149.846V209H147.83V199.857ZM152.043 199.857H153.952V201.201L153.988 201.237C154.294 200.73 154.695 200.335 155.19 200.052C155.685 199.757 156.234 199.61 156.835 199.61C157.837 199.61 158.627 199.869 159.205 200.388C159.782 200.907 160.071 201.685 160.071 202.722V209H158.055V203.253C158.032 202.533 157.878 202.015 157.595 201.696C157.312 201.366 156.87 201.201 156.269 201.201C155.927 201.201 155.621 201.266 155.349 201.396C155.078 201.514 154.848 201.685 154.66 201.909C154.471 202.121 154.324 202.374 154.218 202.669C154.112 202.964 154.059 203.276 154.059 203.606V209H152.043V199.857ZM170.65 208.523C170.65 209.902 170.261 210.928 169.483 211.6C168.717 212.283 167.609 212.625 166.158 212.625C165.699 212.625 165.233 212.578 164.761 212.484C164.302 212.389 163.877 212.23 163.488 212.006C163.111 211.782 162.793 211.488 162.533 211.122C162.274 210.757 162.121 210.309 162.073 209.778H164.089C164.148 210.061 164.249 210.291 164.39 210.468C164.531 210.645 164.697 210.78 164.885 210.875C165.086 210.981 165.304 211.045 165.539 211.069C165.775 211.104 166.023 211.122 166.282 211.122C167.096 211.122 167.691 210.922 168.068 210.521C168.446 210.12 168.634 209.542 168.634 208.788V207.391H168.599C168.316 207.898 167.927 208.293 167.432 208.576C166.948 208.859 166.424 209 165.858 209C165.127 209 164.502 208.876 163.983 208.629C163.476 208.369 163.052 208.021 162.71 207.585C162.38 207.137 162.138 206.624 161.985 206.047C161.832 205.469 161.755 204.85 161.755 204.19C161.755 203.577 161.849 202.993 162.038 202.439C162.227 201.885 162.498 201.402 162.851 200.989C163.205 200.565 163.635 200.229 164.142 199.981C164.661 199.733 165.245 199.61 165.893 199.61C166.471 199.61 167.001 199.733 167.485 199.981C167.968 200.217 168.339 200.594 168.599 201.113H168.634V199.857H170.65V208.523ZM166.176 207.408C166.624 207.408 167.001 207.32 167.308 207.143C167.626 206.955 167.88 206.713 168.068 206.418C168.269 206.112 168.41 205.77 168.493 205.392C168.587 205.003 168.634 204.614 168.634 204.225C168.634 203.836 168.587 203.459 168.493 203.093C168.398 202.728 168.251 202.404 168.051 202.121C167.862 201.838 167.609 201.614 167.29 201.449C166.984 201.284 166.612 201.201 166.176 201.201C165.728 201.201 165.351 201.296 165.044 201.484C164.738 201.673 164.49 201.92 164.302 202.227C164.113 202.522 163.977 202.864 163.895 203.253C163.812 203.63 163.771 204.007 163.771 204.384C163.771 204.762 163.818 205.133 163.913 205.499C164.007 205.852 164.148 206.171 164.337 206.453C164.537 206.736 164.785 206.966 165.08 207.143C165.386 207.32 165.752 207.408 166.176 207.408ZM176.682 199.857H178.203V197.116H180.219V199.857H182.04V201.36H180.219V206.241C180.219 206.453 180.225 206.636 180.237 206.789C180.26 206.943 180.302 207.072 180.36 207.179C180.431 207.285 180.531 207.367 180.661 207.426C180.791 207.473 180.968 207.497 181.192 207.497C181.333 207.497 181.475 207.497 181.616 207.497C181.758 207.485 181.899 207.461 182.04 207.426V208.982C181.816 209.006 181.598 209.029 181.386 209.053C181.174 209.077 180.956 209.088 180.732 209.088C180.201 209.088 179.771 209.041 179.441 208.947C179.123 208.841 178.869 208.693 178.68 208.505C178.504 208.304 178.38 208.057 178.309 207.762C178.25 207.467 178.215 207.131 178.203 206.754V201.36H176.682V199.857ZM183.491 196.373H185.507V201.06H185.542C185.79 200.647 186.155 200.305 186.639 200.034C187.134 199.751 187.682 199.61 188.283 199.61C189.285 199.61 190.075 199.869 190.653 200.388C191.231 200.907 191.519 201.685 191.519 202.722V209H189.503V203.253C189.48 202.533 189.327 202.015 189.044 201.696C188.761 201.366 188.319 201.201 187.717 201.201C187.375 201.201 187.069 201.266 186.798 201.396C186.527 201.514 186.297 201.685 186.108 201.909C185.919 202.121 185.772 202.374 185.666 202.669C185.56 202.964 185.507 203.276 185.507 203.606V209H183.491V196.373ZM199.923 203.624C199.9 203.306 199.829 202.999 199.711 202.704C199.605 202.41 199.452 202.156 199.251 201.944C199.063 201.72 198.827 201.543 198.544 201.413C198.273 201.272 197.966 201.201 197.624 201.201C197.271 201.201 196.946 201.266 196.652 201.396C196.369 201.514 196.121 201.685 195.909 201.909C195.709 202.121 195.543 202.374 195.414 202.669C195.296 202.964 195.231 203.282 195.219 203.624H199.923ZM195.219 204.95C195.219 205.304 195.266 205.646 195.361 205.976C195.467 206.306 195.62 206.595 195.821 206.843C196.021 207.09 196.274 207.291 196.581 207.444C196.887 207.585 197.253 207.656 197.677 207.656C198.267 207.656 198.738 207.532 199.092 207.285C199.458 207.025 199.729 206.642 199.906 206.135H201.815C201.709 206.63 201.527 207.072 201.267 207.461C201.008 207.851 200.695 208.181 200.33 208.452C199.964 208.711 199.552 208.906 199.092 209.035C198.644 209.177 198.173 209.248 197.677 209.248C196.958 209.248 196.322 209.13 195.767 208.894C195.213 208.658 194.742 208.328 194.353 207.904C193.975 207.479 193.687 206.972 193.486 206.383C193.298 205.793 193.203 205.145 193.203 204.437C193.203 203.789 193.303 203.176 193.504 202.598C193.716 202.009 194.011 201.496 194.388 201.06C194.777 200.612 195.243 200.258 195.785 199.999C196.327 199.739 196.941 199.61 197.624 199.61C198.343 199.61 198.986 199.763 199.552 200.069C200.13 200.364 200.607 200.759 200.984 201.254C201.362 201.749 201.633 202.321 201.798 202.97C201.975 203.606 202.022 204.267 201.939 204.95H195.219ZM208.447 196.373H210.463V201.042H210.498C210.64 200.818 210.811 200.618 211.011 200.441C211.211 200.264 211.429 200.117 211.665 199.999C211.913 199.869 212.166 199.775 212.426 199.716C212.697 199.645 212.962 199.61 213.221 199.61C213.941 199.61 214.565 199.739 215.096 199.999C215.638 200.246 216.086 200.594 216.44 201.042C216.794 201.478 217.059 201.991 217.236 202.581C217.413 203.17 217.501 203.801 217.501 204.473C217.501 205.086 217.419 205.681 217.253 206.259C217.1 206.837 216.859 207.349 216.528 207.797C216.21 208.234 215.803 208.587 215.308 208.859C214.813 209.118 214.229 209.248 213.557 209.248C213.251 209.248 212.939 209.224 212.62 209.177C212.314 209.141 212.019 209.065 211.736 208.947C211.453 208.829 211.194 208.676 210.958 208.487C210.734 208.299 210.545 208.051 210.392 207.744H210.357V209H208.447V196.373ZM215.485 204.437C215.485 204.025 215.432 203.624 215.326 203.235C215.22 202.846 215.061 202.504 214.848 202.209C214.636 201.903 214.371 201.661 214.053 201.484C213.734 201.296 213.369 201.201 212.956 201.201C212.107 201.201 211.465 201.496 211.029 202.085C210.604 202.675 210.392 203.459 210.392 204.437C210.392 204.897 210.445 205.328 210.551 205.728C210.669 206.117 210.84 206.453 211.064 206.736C211.288 207.019 211.553 207.243 211.86 207.408C212.178 207.573 212.544 207.656 212.956 207.656C213.416 207.656 213.805 207.562 214.123 207.373C214.442 207.184 214.701 206.943 214.901 206.648C215.114 206.341 215.261 206 215.344 205.622C215.438 205.233 215.485 204.838 215.485 204.437ZM225.482 203.624C225.459 203.306 225.388 202.999 225.27 202.704C225.164 202.41 225.011 202.156 224.81 201.944C224.622 201.72 224.386 201.543 224.103 201.413C223.832 201.272 223.525 201.201 223.183 201.201C222.83 201.201 222.506 201.266 222.211 201.396C221.928 201.514 221.68 201.685 221.468 201.909C221.268 202.121 221.103 202.374 220.973 202.669C220.855 202.964 220.79 203.282 220.778 203.624H225.482ZM220.778 204.95C220.778 205.304 220.826 205.646 220.92 205.976C221.026 206.306 221.179 206.595 221.38 206.843C221.58 207.09 221.834 207.291 222.14 207.444C222.447 207.585 222.812 207.656 223.237 207.656C223.826 207.656 224.298 207.532 224.651 207.285C225.017 207.025 225.288 206.642 225.465 206.135H227.375C227.269 206.63 227.086 207.072 226.826 207.461C226.567 207.851 226.255 208.181 225.889 208.452C225.524 208.711 225.111 208.906 224.651 209.035C224.203 209.177 223.732 209.248 223.237 209.248C222.517 209.248 221.881 209.13 221.327 208.894C220.773 208.658 220.301 208.328 219.912 207.904C219.535 207.479 219.246 206.972 219.045 206.383C218.857 205.793 218.762 205.145 218.762 204.437C218.762 203.789 218.863 203.176 219.063 202.598C219.275 202.009 219.57 201.496 219.947 201.06C220.336 200.612 220.802 200.258 221.344 199.999C221.887 199.739 222.5 199.61 223.183 199.61C223.903 199.61 224.545 199.763 225.111 200.069C225.689 200.364 226.166 200.759 226.543 201.254C226.921 201.749 227.192 202.321 227.357 202.97C227.534 203.606 227.581 204.267 227.498 204.95H220.778ZM230.552 206.064C230.611 206.654 230.835 207.067 231.224 207.302C231.613 207.538 232.079 207.656 232.621 207.656C232.81 207.656 233.022 207.644 233.258 207.621C233.505 207.585 233.735 207.526 233.947 207.444C234.159 207.361 234.33 207.243 234.46 207.09C234.602 206.925 234.666 206.713 234.655 206.453C234.643 206.194 234.549 205.982 234.372 205.817C234.195 205.652 233.965 205.522 233.682 205.428C233.411 205.322 233.098 205.233 232.745 205.163C232.391 205.092 232.031 205.015 231.666 204.933C231.289 204.85 230.923 204.75 230.57 204.632C230.228 204.514 229.915 204.355 229.632 204.155C229.361 203.954 229.143 203.701 228.978 203.394C228.813 203.076 228.73 202.687 228.73 202.227C228.73 201.732 228.848 201.319 229.084 200.989C229.332 200.647 229.638 200.376 230.004 200.176C230.381 199.963 230.794 199.816 231.242 199.733C231.701 199.651 232.138 199.61 232.55 199.61C233.022 199.61 233.47 199.663 233.894 199.769C234.33 199.863 234.719 200.022 235.061 200.246C235.415 200.47 235.704 200.765 235.928 201.131C236.164 201.484 236.311 201.915 236.37 202.421H234.266C234.171 201.938 233.947 201.614 233.594 201.449C233.252 201.284 232.857 201.201 232.409 201.201C232.267 201.201 232.096 201.213 231.896 201.237C231.707 201.26 231.525 201.307 231.348 201.378C231.183 201.437 231.041 201.531 230.923 201.661C230.805 201.779 230.746 201.938 230.746 202.139C230.746 202.386 230.829 202.587 230.994 202.74C231.171 202.893 231.395 203.023 231.666 203.129C231.949 203.223 232.267 203.306 232.621 203.376C232.975 203.447 233.34 203.524 233.717 203.606C234.083 203.689 234.442 203.789 234.796 203.907C235.15 204.025 235.462 204.184 235.733 204.384C236.016 204.585 236.24 204.838 236.405 205.145C236.582 205.451 236.671 205.829 236.671 206.277C236.671 206.819 236.547 207.279 236.299 207.656C236.052 208.033 235.727 208.34 235.327 208.576C234.938 208.811 234.501 208.982 234.018 209.088C233.535 209.195 233.057 209.248 232.586 209.248C232.008 209.248 231.471 209.183 230.976 209.053C230.493 208.923 230.069 208.729 229.703 208.469C229.349 208.198 229.066 207.868 228.854 207.479C228.654 207.078 228.548 206.607 228.536 206.064H230.552ZM237.282 199.857H238.803V197.116H240.819V199.857H242.64V201.36H240.819V206.241C240.819 206.453 240.824 206.636 240.836 206.789C240.86 206.943 240.901 207.072 240.96 207.179C241.031 207.285 241.131 207.367 241.261 207.426C241.39 207.473 241.567 207.497 241.791 207.497C241.933 207.497 242.074 207.497 242.216 207.497C242.357 207.485 242.499 207.461 242.64 207.426V208.982C242.416 209.006 242.198 209.029 241.986 209.053C241.773 209.077 241.555 209.088 241.331 209.088C240.801 209.088 240.371 209.041 240.04 208.947C239.722 208.841 239.469 208.693 239.28 208.505C239.103 208.304 238.979 208.057 238.909 207.762C238.85 207.467 238.814 207.131 238.803 206.754V201.36H237.282V199.857ZM248.093 199.857H249.613V197.116H251.629V199.857H253.451V201.36H251.629V206.241C251.629 206.453 251.635 206.636 251.647 206.789C251.671 206.943 251.712 207.072 251.771 207.179C251.842 207.285 251.942 207.367 252.071 207.426C252.201 207.473 252.378 207.497 252.602 207.497C252.743 207.497 252.885 207.497 253.026 207.497C253.168 207.485 253.309 207.461 253.451 207.426V208.982C253.227 209.006 253.009 209.029 252.797 209.053C252.584 209.077 252.366 209.088 252.142 209.088C251.612 209.088 251.181 209.041 250.851 208.947C250.533 208.841 250.279 208.693 250.091 208.505C249.914 208.304 249.79 208.057 249.719 207.762C249.661 207.467 249.625 207.131 249.613 206.754V201.36H248.093V199.857ZM259.092 209.248C258.361 209.248 257.707 209.13 257.129 208.894C256.563 208.646 256.08 208.31 255.679 207.886C255.29 207.461 254.99 206.955 254.777 206.365C254.577 205.776 254.477 205.127 254.477 204.42C254.477 203.724 254.577 203.082 254.777 202.492C254.99 201.903 255.29 201.396 255.679 200.971C256.08 200.547 256.563 200.217 257.129 199.981C257.707 199.733 258.361 199.61 259.092 199.61C259.823 199.61 260.472 199.733 261.038 199.981C261.615 200.217 262.099 200.547 262.488 200.971C262.888 201.396 263.189 201.903 263.39 202.492C263.602 203.082 263.708 203.724 263.708 204.42C263.708 205.127 263.602 205.776 263.39 206.365C263.189 206.955 262.888 207.461 262.488 207.886C262.099 208.31 261.615 208.646 261.038 208.894C260.472 209.13 259.823 209.248 259.092 209.248ZM259.092 207.656C259.54 207.656 259.929 207.562 260.259 207.373C260.59 207.184 260.861 206.937 261.073 206.63C261.285 206.324 261.438 205.982 261.533 205.605C261.639 205.216 261.692 204.821 261.692 204.42C261.692 204.031 261.639 203.642 261.533 203.253C261.438 202.864 261.285 202.522 261.073 202.227C260.861 201.92 260.59 201.673 260.259 201.484C259.929 201.296 259.54 201.201 259.092 201.201C258.644 201.201 258.255 201.296 257.925 201.484C257.595 201.673 257.324 201.92 257.112 202.227C256.899 202.522 256.74 202.864 256.634 203.253C256.54 203.642 256.493 204.031 256.493 204.42C256.493 204.821 256.54 205.216 256.634 205.605C256.74 205.982 256.899 206.324 257.112 206.63C257.324 206.937 257.595 207.184 257.925 207.373C258.255 207.562 258.644 207.656 259.092 207.656ZM273.412 209H271.432V207.727H271.396C271.149 208.187 270.778 208.558 270.282 208.841C269.799 209.112 269.304 209.248 268.797 209.248C267.594 209.248 266.722 208.953 266.18 208.363C265.649 207.762 265.384 206.86 265.384 205.658V199.857H267.4V205.463C267.4 206.265 267.553 206.831 267.86 207.161C268.166 207.491 268.596 207.656 269.151 207.656C269.575 207.656 269.929 207.591 270.212 207.461C270.495 207.332 270.724 207.161 270.901 206.949C271.078 206.725 271.202 206.459 271.273 206.153C271.355 205.846 271.396 205.516 271.396 205.163V199.857H273.412V209ZM275.538 199.857H277.431V201.626H277.466C277.525 201.378 277.637 201.136 277.802 200.901C277.979 200.665 278.185 200.453 278.421 200.264C278.669 200.064 278.94 199.904 279.234 199.787C279.529 199.669 279.83 199.61 280.136 199.61C280.372 199.61 280.531 199.616 280.614 199.627C280.708 199.639 280.802 199.651 280.897 199.663V201.608C280.755 201.584 280.608 201.567 280.455 201.555C280.313 201.531 280.172 201.52 280.03 201.52C279.688 201.52 279.364 201.59 279.058 201.732C278.763 201.861 278.503 202.062 278.279 202.333C278.055 202.592 277.879 202.917 277.749 203.306C277.619 203.695 277.554 204.143 277.554 204.65V209H275.538V199.857ZM68.9142 230.523C68.9142 231.902 68.5251 232.928 67.747 233.6C66.9807 234.283 65.8725 234.625 64.4224 234.625C63.9626 234.625 63.4969 234.578 63.0253 234.484C62.5656 234.389 62.1411 234.23 61.7521 234.006C61.3748 233.782 61.0565 233.488 60.7971 233.122C60.5378 232.757 60.3845 232.309 60.3373 231.778H62.3533C62.4123 232.061 62.5125 232.291 62.654 232.468C62.7955 232.645 62.9605 232.78 63.1491 232.875C63.3496 232.981 63.5677 233.045 63.8035 233.069C64.0392 233.104 64.2868 233.122 64.5462 233.122C65.3597 233.122 65.955 232.922 66.3323 232.521C66.7096 232.12 66.8982 231.542 66.8982 230.788V229.391H66.8628C66.5799 229.898 66.1908 230.293 65.6957 230.576C65.2123 230.859 64.6877 231 64.1218 231C63.3908 231 62.766 230.876 62.2472 230.629C61.7403 230.369 61.3159 230.021 60.974 229.585C60.6439 229.137 60.4022 228.624 60.2489 228.047C60.0957 227.469 60.019 226.85 60.019 226.19C60.019 225.577 60.1133 224.993 60.302 224.439C60.4906 223.885 60.7618 223.402 61.1155 222.989C61.4691 222.565 61.8995 222.229 62.4064 221.981C62.9251 221.733 63.5087 221.61 64.1571 221.61C64.7348 221.61 65.2653 221.733 65.7487 221.981C66.2321 222.217 66.6035 222.594 66.8628 223.113H66.8982V221.857H68.9142V230.523ZM64.4401 229.408C64.8881 229.408 65.2653 229.32 65.5719 229.143C65.8902 228.955 66.1437 228.713 66.3323 228.418C66.5327 228.112 66.6742 227.77 66.7567 227.392C66.851 227.003 66.8982 226.614 66.8982 226.225C66.8982 225.836 66.851 225.459 66.7567 225.093C66.6624 224.728 66.515 224.404 66.3146 224.121C66.126 223.838 65.8725 223.614 65.5542 223.449C65.2477 223.284 64.8763 223.201 64.4401 223.201C63.9921 223.201 63.6148 223.296 63.3083 223.484C63.0018 223.673 62.7542 223.92 62.5656 224.227C62.3769 224.522 62.2413 224.864 62.1588 225.253C62.0763 225.63 62.035 226.007 62.035 226.384C62.035 226.762 62.0822 227.133 62.1765 227.499C62.2708 227.852 62.4123 228.171 62.6009 228.453C62.8013 228.736 63.0489 228.966 63.3437 229.143C63.6502 229.32 64.0157 229.408 64.4401 229.408ZM78.973 231H76.992V229.727H76.957C76.709 230.187 76.338 230.558 75.842 230.841C75.359 231.112 74.864 231.248 74.357 231.248C73.154 231.248 72.282 230.953 71.74 230.363C71.209 229.762 70.9439 228.86 70.9439 227.658V221.857H72.96V227.463C72.96 228.265 73.113 228.831 73.42 229.161C73.726 229.491 74.157 229.656 74.711 229.656C75.135 229.656 75.489 229.591 75.772 229.461C76.055 229.332 76.285 229.161 76.461 228.949C76.638 228.725 76.762 228.459 76.833 228.153C76.915 227.846 76.957 227.516 76.957 227.163V221.857H78.973V231ZM81.152 218.373H83.168V220.283H81.152V218.373ZM81.152 221.857H83.168V231H81.152V221.857ZM93.976 231H92.066V229.762H92.031C91.76 230.293 91.365 230.676 90.846 230.912C90.327 231.136 89.779 231.248 89.202 231.248C88.482 231.248 87.852 231.124 87.309 230.876C86.779 230.617 86.337 230.269 85.983 229.833C85.629 229.397 85.364 228.884 85.187 228.294C85.01 227.693 84.922 227.051 84.922 226.367C84.922 225.541 85.034 224.828 85.258 224.227C85.482 223.626 85.777 223.131 86.142 222.741C86.519 222.352 86.944 222.069 87.415 221.893C87.899 221.704 88.388 221.61 88.883 221.61C89.166 221.61 89.455 221.639 89.75 221.698C90.045 221.745 90.327 221.828 90.599 221.946C90.87 222.064 91.117 222.217 91.341 222.405C91.577 222.582 91.772 222.795 91.925 223.042H91.96V218.373H93.976V231ZM86.938 226.526C86.938 226.915 86.985 227.298 87.079 227.675C87.186 228.053 87.339 228.389 87.539 228.683C87.751 228.978 88.017 229.214 88.335 229.391C88.653 229.568 89.031 229.656 89.467 229.656C89.915 229.656 90.298 229.562 90.616 229.373C90.946 229.184 91.212 228.937 91.412 228.63C91.624 228.324 91.778 227.982 91.872 227.605C91.978 227.216 92.031 226.821 92.031 226.42C92.031 225.406 91.801 224.616 91.341 224.05C90.893 223.484 90.28 223.201 89.502 223.201C89.031 223.201 88.63 223.301 88.3 223.502C87.981 223.691 87.716 223.944 87.504 224.262C87.303 224.569 87.156 224.923 87.062 225.323C86.979 225.712 86.938 226.113 86.938 226.526ZM102.453 225.624C102.429 225.306 102.359 224.999 102.241 224.704C102.135 224.41 101.981 224.156 101.781 223.944C101.592 223.72 101.356 223.543 101.073 223.413C100.802 223.272 100.496 223.201 100.154 223.201C99.8 223.201 99.476 223.266 99.181 223.396C98.898 223.514 98.651 223.685 98.439 223.909C98.238 224.121 98.073 224.374 97.943 224.669C97.825 224.964 97.761 225.282 97.749 225.624H102.453ZM97.749 226.95C97.749 227.304 97.796 227.646 97.89 227.976C97.996 228.306 98.15 228.595 98.35 228.843C98.551 229.09 98.804 229.291 99.111 229.444C99.417 229.585 99.783 229.656 100.207 229.656C100.796 229.656 101.268 229.532 101.622 229.285C101.987 229.025 102.258 228.642 102.435 228.135H104.345C104.239 228.63 104.056 229.072 103.797 229.461C103.537 229.851 103.225 230.181 102.86 230.452C102.494 230.711 102.081 230.906 101.622 231.035C101.174 231.177 100.702 231.248 100.207 231.248C99.488 231.248 98.851 231.13 98.297 230.894C97.743 230.658 97.271 230.328 96.882 229.904C96.505 229.479 96.216 228.972 96.016 228.383C95.827 227.793 95.733 227.145 95.733 226.437C95.733 225.789 95.833 225.176 96.033 224.598C96.246 224.009 96.54 223.496 96.918 223.06C97.307 222.612 97.772 222.258 98.315 221.999C98.857 221.739 99.47 221.61 100.154 221.61C100.873 221.61 101.516 221.763 102.081 222.069C102.659 222.364 103.137 222.759 103.514 223.254C103.891 223.749 104.162 224.321 104.327 224.97C104.504 225.606 104.551 226.267 104.469 226.95H97.749ZM110.004 221.857H111.525V219.116H113.541V221.857H115.362V223.36H113.541V228.241C113.541 228.453 113.546 228.636 113.558 228.789C113.582 228.943 113.623 229.072 113.682 229.179C113.753 229.285 113.853 229.367 113.983 229.426C114.112 229.473 114.289 229.497 114.513 229.497C114.655 229.497 114.796 229.497 114.938 229.497C115.079 229.485 115.221 229.461 115.362 229.426V230.982C115.138 231.006 114.92 231.029 114.708 231.053C114.496 231.077 114.277 231.088 114.053 231.088C113.523 231.088 113.093 231.041 112.762 230.947C112.444 230.841 112.191 230.693 112.002 230.505C111.825 230.304 111.701 230.057 111.631 229.762C111.572 229.467 111.536 229.131 111.525 228.754V223.36H110.004V221.857ZM116.812 218.373H118.828V223.06H118.864C119.111 222.647 119.477 222.305 119.96 222.034C120.455 221.751 121.003 221.61 121.605 221.61C122.607 221.61 123.397 221.869 123.974 222.388C124.552 222.907 124.841 223.685 124.841 224.722V231H122.825V225.253C122.801 224.533 122.648 224.015 122.365 223.696C122.082 223.366 121.64 223.201 121.039 223.201C120.697 223.201 120.39 223.266 120.119 223.396C119.848 223.514 119.618 223.685 119.43 223.909C119.241 224.121 119.094 224.374 118.987 224.669C118.881 224.964 118.828 225.276 118.828 225.606V231H116.812V218.373ZM134.624 228.966C134.624 229.214 134.654 229.391 134.713 229.497C134.783 229.603 134.913 229.656 135.102 229.656C135.161 229.656 135.231 229.656 135.314 229.656C135.396 229.656 135.491 229.644 135.597 229.621V231.018C135.526 231.041 135.432 231.065 135.314 231.088C135.208 231.124 135.096 231.153 134.978 231.177C134.86 231.2 134.742 231.218 134.624 231.23C134.506 231.242 134.406 231.248 134.324 231.248C133.911 231.248 133.569 231.165 133.298 231C133.027 230.835 132.85 230.546 132.767 230.133C132.366 230.523 131.871 230.805 131.282 230.982C130.704 231.159 130.144 231.248 129.602 231.248C129.189 231.248 128.794 231.189 128.417 231.071C128.04 230.965 127.704 230.805 127.409 230.593C127.126 230.369 126.896 230.092 126.719 229.762C126.554 229.42 126.472 229.025 126.472 228.577C126.472 228.011 126.572 227.552 126.772 227.198C126.985 226.844 127.256 226.567 127.586 226.367C127.928 226.166 128.305 226.025 128.718 225.942C129.142 225.848 129.566 225.777 129.991 225.73C130.356 225.659 130.704 225.612 131.034 225.589C131.364 225.553 131.653 225.5 131.901 225.429C132.16 225.359 132.361 225.253 132.502 225.111C132.655 224.958 132.732 224.734 132.732 224.439C132.732 224.18 132.667 223.968 132.537 223.803C132.42 223.637 132.266 223.514 132.078 223.431C131.901 223.337 131.7 223.278 131.476 223.254C131.252 223.219 131.04 223.201 130.84 223.201C130.274 223.201 129.808 223.319 129.443 223.555C129.077 223.791 128.871 224.156 128.824 224.651H126.808C126.843 224.062 126.985 223.573 127.232 223.184C127.48 222.795 127.792 222.482 128.169 222.246C128.558 222.011 128.995 221.845 129.478 221.751C129.961 221.657 130.457 221.61 130.964 221.61C131.412 221.61 131.854 221.657 132.29 221.751C132.726 221.845 133.115 221.999 133.457 222.211C133.811 222.423 134.094 222.7 134.306 223.042C134.518 223.372 134.624 223.779 134.624 224.262V228.966ZM132.608 226.42C132.302 226.62 131.924 226.744 131.476 226.791C131.028 226.827 130.58 226.885 130.132 226.968C129.92 227.003 129.714 227.056 129.513 227.127C129.313 227.186 129.136 227.275 128.983 227.392C128.83 227.499 128.706 227.646 128.612 227.835C128.529 228.011 128.488 228.229 128.488 228.489C128.488 228.713 128.553 228.901 128.682 229.055C128.812 229.208 128.965 229.332 129.142 229.426C129.331 229.509 129.531 229.568 129.743 229.603C129.967 229.638 130.168 229.656 130.345 229.656C130.569 229.656 130.81 229.627 131.07 229.568C131.329 229.509 131.571 229.408 131.795 229.267C132.03 229.125 132.225 228.949 132.378 228.736C132.532 228.512 132.608 228.241 132.608 227.923V226.42ZM135.874 221.857H137.395V219.116H139.411V221.857H141.232V223.36H139.411V228.241C139.411 228.453 139.417 228.636 139.428 228.789C139.452 228.943 139.493 229.072 139.552 229.179C139.623 229.285 139.723 229.367 139.853 229.426C139.982 229.473 140.159 229.497 140.383 229.497C140.525 229.497 140.666 229.497 140.808 229.497C140.949 229.485 141.091 229.461 141.232 229.426V230.982C141.008 231.006 140.79 231.029 140.578 231.053C140.366 231.077 140.147 231.088 139.923 231.088C139.393 231.088 138.963 231.041 138.633 230.947C138.314 230.841 138.061 230.693 137.872 230.505C137.695 230.304 137.571 230.057 137.501 229.762C137.442 229.467 137.406 229.131 137.395 228.754V223.36H135.874V221.857ZM147.604 221.857H149.514V223.131H149.567C149.72 222.907 149.885 222.7 150.062 222.512C150.239 222.323 150.434 222.164 150.646 222.034C150.87 221.904 151.123 221.804 151.406 221.733C151.689 221.651 152.013 221.61 152.379 221.61C152.933 221.61 153.446 221.733 153.917 221.981C154.401 222.229 154.743 222.612 154.943 223.131C155.285 222.659 155.68 222.288 156.128 222.016C156.576 221.745 157.136 221.61 157.808 221.61C158.775 221.61 159.523 221.845 160.054 222.317C160.596 222.789 160.867 223.579 160.867 224.687V231H158.851V225.659C158.851 225.294 158.84 224.964 158.816 224.669C158.792 224.363 158.722 224.103 158.604 223.891C158.498 223.667 158.333 223.496 158.109 223.378C157.885 223.26 157.578 223.201 157.189 223.201C156.505 223.201 156.01 223.413 155.704 223.838C155.397 224.262 155.244 224.864 155.244 225.642V231H153.228V225.129C153.228 224.492 153.11 224.015 152.874 223.696C152.65 223.366 152.232 223.201 151.619 223.201C151.359 223.201 151.106 223.254 150.858 223.36C150.622 223.467 150.41 223.62 150.221 223.82C150.045 224.021 149.897 224.268 149.779 224.563C149.673 224.858 149.62 225.194 149.62 225.571V231H147.604V221.857ZM170.649 228.966C170.649 229.214 170.678 229.391 170.737 229.497C170.808 229.603 170.938 229.656 171.126 229.656C171.185 229.656 171.256 229.656 171.339 229.656C171.421 229.656 171.515 229.644 171.621 229.621V231.018C171.551 231.041 171.456 231.065 171.339 231.088C171.232 231.124 171.12 231.153 171.003 231.177C170.885 231.2 170.767 231.218 170.649 231.23C170.531 231.242 170.431 231.248 170.348 231.248C169.936 231.248 169.594 231.165 169.323 231C169.051 230.835 168.875 230.546 168.792 230.133C168.391 230.523 167.896 230.805 167.307 230.982C166.729 231.159 166.169 231.248 165.627 231.248C165.214 231.248 164.819 231.189 164.442 231.071C164.064 230.965 163.728 230.805 163.434 230.593C163.151 230.369 162.921 230.092 162.744 229.762C162.579 229.42 162.496 229.025 162.496 228.577C162.496 228.011 162.597 227.552 162.797 227.198C163.009 226.844 163.28 226.567 163.611 226.367C163.952 226.166 164.33 226.025 164.742 225.942C165.167 225.848 165.591 225.777 166.016 225.73C166.381 225.659 166.729 225.612 167.059 225.589C167.389 225.553 167.678 225.5 167.925 225.429C168.185 225.359 168.385 225.253 168.527 225.111C168.68 224.958 168.757 224.734 168.757 224.439C168.757 224.18 168.692 223.968 168.562 223.803C168.444 223.637 168.291 223.514 168.102 223.431C167.925 223.337 167.725 223.278 167.501 223.254C167.277 223.219 167.065 223.201 166.864 223.201C166.299 223.201 165.833 223.319 165.467 223.555C165.102 223.791 164.896 224.156 164.848 224.651H162.832C162.868 224.062 163.009 223.573 163.257 223.184C163.504 222.795 163.817 222.482 164.194 222.246C164.583 222.011 165.019 221.845 165.503 221.751C165.986 221.657 166.481 221.61 166.988 221.61C167.436 221.61 167.878 221.657 168.315 221.751C168.751 221.845 169.14 221.999 169.482 222.211C169.835 222.423 170.118 222.7 170.331 223.042C170.543 223.372 170.649 223.779 170.649 224.262V228.966ZM168.633 226.42C168.326 226.62 167.949 226.744 167.501 226.791C167.053 226.827 166.605 226.885 166.157 226.968C165.945 227.003 165.739 227.056 165.538 227.127C165.338 227.186 165.161 227.275 165.008 227.392C164.854 227.499 164.731 227.646 164.636 227.835C164.554 228.011 164.512 228.229 164.512 228.489C164.512 228.713 164.577 228.901 164.707 229.055C164.837 229.208 164.99 229.332 165.167 229.426C165.355 229.509 165.556 229.568 165.768 229.603C165.992 229.638 166.192 229.656 166.369 229.656C166.593 229.656 166.835 229.627 167.094 229.568C167.354 229.509 167.595 229.408 167.819 229.267C168.055 229.125 168.25 228.949 168.403 228.736C168.556 228.512 168.633 228.241 168.633 227.923V226.42ZM171.898 221.857H173.419V219.116H175.435V221.857H177.257V223.36H175.435V228.241C175.435 228.453 175.441 228.636 175.453 228.789C175.477 228.943 175.518 229.072 175.577 229.179C175.648 229.285 175.748 229.367 175.877 229.426C176.007 229.473 176.184 229.497 176.408 229.497C176.549 229.497 176.691 229.497 176.832 229.497C176.974 229.485 177.115 229.461 177.257 229.426V230.982C177.033 231.006 176.815 231.029 176.602 231.053C176.39 231.077 176.172 231.088 175.948 231.088C175.418 231.088 174.987 231.041 174.657 230.947C174.339 230.841 174.085 230.693 173.897 230.505C173.72 230.304 173.596 230.057 173.525 229.762C173.466 229.467 173.431 229.131 173.419 228.754V223.36H171.898V221.857ZM184.879 224.917C184.796 224.351 184.566 223.926 184.189 223.643C183.824 223.349 183.358 223.201 182.792 223.201C182.533 223.201 182.256 223.248 181.961 223.343C181.666 223.425 181.395 223.59 181.147 223.838C180.9 224.074 180.694 224.41 180.528 224.846C180.363 225.27 180.281 225.83 180.281 226.526C180.281 226.903 180.322 227.28 180.405 227.658C180.499 228.035 180.64 228.371 180.829 228.666C181.03 228.96 181.283 229.202 181.59 229.391C181.896 229.568 182.267 229.656 182.704 229.656C183.293 229.656 183.776 229.473 184.154 229.108C184.543 228.742 184.784 228.229 184.879 227.569H186.895C186.706 228.76 186.252 229.674 185.533 230.31C184.826 230.935 183.883 231.248 182.704 231.248C181.984 231.248 181.348 231.13 180.794 230.894C180.251 230.646 179.792 230.316 179.414 229.904C179.037 229.479 178.748 228.978 178.548 228.4C178.359 227.823 178.265 227.198 178.265 226.526C178.265 225.842 178.359 225.2 178.548 224.598C178.736 223.997 179.019 223.478 179.397 223.042C179.774 222.594 180.24 222.246 180.794 221.999C181.36 221.739 182.02 221.61 182.774 221.61C183.305 221.61 183.806 221.68 184.278 221.822C184.761 221.952 185.185 222.152 185.551 222.423C185.928 222.694 186.235 223.036 186.47 223.449C186.706 223.861 186.848 224.351 186.895 224.917H184.879ZM188.533 218.373H190.549V223.06H190.585C190.832 222.647 191.198 222.305 191.681 222.034C192.176 221.751 192.725 221.61 193.326 221.61C194.328 221.61 195.118 221.869 195.696 222.388C196.273 222.907 196.562 223.685 196.562 224.722V231H194.546V225.253C194.523 224.533 194.369 224.015 194.086 223.696C193.803 223.366 193.361 223.201 192.76 223.201C192.418 223.201 192.112 223.266 191.84 223.396C191.569 223.514 191.339 223.685 191.151 223.909C190.962 224.121 190.815 224.374 190.709 224.669C190.603 224.964 190.549 225.276 190.549 225.606V231H188.533V218.373ZM202.602 221.857H204.813L207.2 228.683H207.235L209.552 221.857H211.656L208.102 231.495C207.937 231.908 207.772 232.303 207.607 232.68C207.453 233.057 207.259 233.387 207.023 233.67C206.799 233.965 206.516 234.195 206.174 234.36C205.832 234.537 205.396 234.625 204.866 234.625C204.394 234.625 203.928 234.59 203.469 234.519V232.821C203.634 232.845 203.793 232.869 203.946 232.892C204.099 232.928 204.258 232.945 204.423 232.945C204.659 232.945 204.854 232.916 205.007 232.857C205.16 232.798 205.284 232.709 205.378 232.592C205.485 232.485 205.573 232.356 205.644 232.203C205.714 232.049 205.779 231.872 205.838 231.672L206.068 230.965L202.602 221.857ZM216.971 231.248C216.24 231.248 215.586 231.13 215.008 230.894C214.443 230.646 213.959 230.31 213.558 229.886C213.169 229.461 212.869 228.955 212.656 228.365C212.456 227.776 212.356 227.127 212.356 226.42C212.356 225.724 212.456 225.082 212.656 224.492C212.869 223.903 213.169 223.396 213.558 222.971C213.959 222.547 214.443 222.217 215.008 221.981C215.586 221.733 216.24 221.61 216.971 221.61C217.702 221.61 218.351 221.733 218.917 221.981C219.494 222.217 219.978 222.547 220.367 222.971C220.768 223.396 221.068 223.903 221.269 224.492C221.481 225.082 221.587 225.724 221.587 226.42C221.587 227.127 221.481 227.776 221.269 228.365C221.068 228.955 220.768 229.461 220.367 229.886C219.978 230.31 219.494 230.646 218.917 230.894C218.351 231.13 217.702 231.248 216.971 231.248ZM216.971 229.656C217.419 229.656 217.808 229.562 218.139 229.373C218.469 229.184 218.74 228.937 218.952 228.63C219.164 228.324 219.317 227.982 219.412 227.605C219.518 227.216 219.571 226.821 219.571 226.42C219.571 226.031 219.518 225.642 219.412 225.253C219.317 224.864 219.164 224.522 218.952 224.227C218.74 223.92 218.469 223.673 218.139 223.484C217.808 223.296 217.419 223.201 216.971 223.201C216.523 223.201 216.134 223.296 215.804 223.484C215.474 223.673 215.203 223.92 214.991 224.227C214.779 224.522 214.619 224.864 214.513 225.253C214.419 225.642 214.372 226.031 214.372 226.42C214.372 226.821 214.419 227.216 214.513 227.605C214.619 227.982 214.779 228.324 214.991 228.63C215.203 228.937 215.474 229.184 215.804 229.373C216.134 229.562 216.523 229.656 216.971 229.656ZM231.292 231H229.311V229.727H229.276C229.028 230.187 228.657 230.558 228.161 230.841C227.678 231.112 227.183 231.248 226.676 231.248C225.473 231.248 224.601 230.953 224.059 230.363C223.528 229.762 223.263 228.86 223.263 227.658V221.857H225.279V227.463C225.279 228.265 225.432 228.831 225.739 229.161C226.045 229.491 226.476 229.656 227.03 229.656C227.454 229.656 227.808 229.591 228.091 229.461C228.374 229.332 228.604 229.161 228.78 228.949C228.957 228.725 229.081 228.459 229.152 228.153C229.234 227.846 229.276 227.516 229.276 227.163V221.857H231.292V231ZM233.418 221.857H235.31V223.626H235.345C235.404 223.378 235.516 223.136 235.681 222.901C235.858 222.665 236.064 222.453 236.3 222.264C236.548 222.064 236.819 221.904 237.114 221.787C237.408 221.669 237.709 221.61 238.015 221.61C238.251 221.61 238.41 221.616 238.493 221.627C238.587 221.639 238.682 221.651 238.776 221.663V223.608C238.634 223.584 238.487 223.567 238.334 223.555C238.192 223.531 238.051 223.52 237.909 223.52C237.567 223.52 237.243 223.59 236.937 223.732C236.642 223.861 236.383 224.062 236.159 224.333C235.935 224.592 235.758 224.917 235.628 225.306C235.498 225.695 235.434 226.143 235.434 226.65V231H233.418V221.857ZM243.637 221.857H245.158V219.116H247.174V221.857H248.995V223.36H247.174V228.241C247.174 228.453 247.18 228.636 247.191 228.789C247.215 228.943 247.256 229.072 247.315 229.179C247.386 229.285 247.486 229.367 247.616 229.426C247.746 229.473 247.922 229.497 248.146 229.497C248.288 229.497 248.429 229.497 248.571 229.497C248.712 229.485 248.854 229.461 248.995 229.426V230.982C248.771 231.006 248.553 231.029 248.341 231.053C248.129 231.077 247.911 231.088 247.687 231.088C247.156 231.088 246.726 231.041 246.396 230.947C246.077 230.841 245.824 230.693 245.635 230.505C245.458 230.304 245.335 230.057 245.264 229.762C245.205 229.467 245.17 229.131 245.158 228.754V223.36H243.637V221.857ZM250.446 221.857H252.338V223.626H252.373C252.432 223.378 252.544 223.136 252.709 222.901C252.886 222.665 253.092 222.453 253.328 222.264C253.576 222.064 253.847 221.904 254.142 221.787C254.436 221.669 254.737 221.61 255.043 221.61C255.279 221.61 255.438 221.616 255.521 221.627C255.615 221.639 255.71 221.651 255.804 221.663V223.608C255.662 223.584 255.515 223.567 255.362 223.555C255.22 223.531 255.079 223.52 254.937 223.52C254.595 223.52 254.271 223.59 253.965 223.732C253.67 223.861 253.411 224.062 253.187 224.333C252.963 224.592 252.786 224.917 252.656 225.306C252.526 225.695 252.462 226.143 252.462 226.65V231H250.446V221.857ZM256.716 218.373H258.732V220.283H256.716V218.373ZM256.716 221.857H258.732V231H256.716V221.857ZM260.981 221.857H262.891V223.095H262.927C263.21 222.565 263.604 222.187 264.111 221.963C264.618 221.728 265.167 221.61 265.756 221.61C266.475 221.61 267.1 221.739 267.631 221.999C268.173 222.246 268.621 222.594 268.975 223.042C269.328 223.478 269.594 223.991 269.77 224.581C269.947 225.17 270.036 225.801 270.036 226.473C270.036 227.086 269.953 227.681 269.788 228.259C269.635 228.837 269.393 229.349 269.063 229.797C268.745 230.234 268.338 230.587 267.843 230.859C267.348 231.118 266.764 231.248 266.092 231.248C265.797 231.248 265.503 231.218 265.208 231.159C264.913 231.112 264.63 231.029 264.359 230.912C264.088 230.794 263.834 230.646 263.599 230.469C263.375 230.281 263.186 230.063 263.033 229.815H262.997V234.378H260.981V221.857ZM268.02 226.437C268.02 226.025 267.967 225.624 267.86 225.235C267.754 224.846 267.595 224.504 267.383 224.209C267.171 223.903 266.906 223.661 266.587 223.484C266.269 223.296 265.903 223.201 265.491 223.201C264.642 223.201 263.999 223.496 263.563 224.085C263.139 224.675 262.927 225.459 262.927 226.437C262.927 226.897 262.98 227.328 263.086 227.728C263.204 228.117 263.375 228.453 263.599 228.736C263.823 229.019 264.088 229.243 264.394 229.408C264.713 229.573 265.078 229.656 265.491 229.656C265.951 229.656 266.34 229.562 266.658 229.373C266.976 229.184 267.236 228.943 267.436 228.648C267.648 228.341 267.796 228 267.878 227.622C267.972 227.233 268.02 226.838 268.02 226.437ZM271.898 228.613H274.356V231H271.898V228.613Z" fill="white" fill-opacity="0.5"/>
<path d="M152 283.182C158.983 283.182 164.25 277.915 164.25 270.932C164.25 263.95 158.983 258.682 152 258.682C145.018 258.682 139.75 263.95 139.75 270.932C139.75 277.915 145.018 283.182 152 283.182ZM155.5 286.5H148.5C138.851 286.5 131 294.351 131 304V307.5H173V304C173 294.351 165.15 286.5 155.5 286.5ZM188.274 250.226L183.325 255.175C187.949 259.806 190.5 265.959 190.5 272.5C190.5 279.042 187.949 285.195 183.325 289.825L188.274 294.774C194.224 288.821 197.5 280.911 197.5 272.5C197.5 264.09 194.224 256.18 188.274 250.226Z" fill="#5EA19C"/>
<path d="M178.373 260.124L173.424 265.08C175.408 267.058 176.5 269.693 176.5 272.5C176.5 275.307 175.408 277.943 173.424 279.92L178.373 284.876C181.677 281.572 183.5 277.18 183.5 272.5C183.5 267.821 181.677 263.428 178.373 260.124Z" fill="#5EA19C"/>
</svg>
